<?xml version="1.0" encoding="UTF-8" standalone="no"?>
<!-- Created with Inkscape (http://www.inkscape.org/) -->

<svg
   xmlns:dc="http://purl.org/dc/elements/1.1/"
   xmlns:cc="http://creativecommons.org/ns#"
   xmlns:rdf="http://www.w3.org/1999/02/22-rdf-syntax-ns#"
   xmlns:svg="http://www.w3.org/2000/svg"
   xmlns="http://www.w3.org/2000/svg"
   xmlns:sodipodi="http://sodipodi.sourceforge.net/DTD/sodipodi-0.dtd"
   xmlns:inkscape="http://www.inkscape.org/namespaces/inkscape"
   width="400"
   height="400"
   viewBox="0 0 105.83333 105.83334"
   version="1.1"
   id="svg4530"
   inkscape:version="0.92.2 (5c3e80d, 2017-08-06)"
   sodipodi:docname="tanh.svg">
  <defs
     id="defs4524" />
  <sodipodi:namedview
     id="base"
     pagecolor="#ffffff"
     bordercolor="#666666"
     borderopacity="1.0"
     inkscape:pageopacity="0.0"
     inkscape:pageshadow="2"
     inkscape:zoom="1.979899"
     inkscape:cx="345.61188"
     inkscape:cy="199.60375"
     inkscape:document-units="mm"
     inkscape:current-layer="layer1"
     showgrid="false"
     units="px"
     inkscape:window-width="1920"
     inkscape:window-height="1017"
     inkscape:window-x="-8"
     inkscape:window-y="-8"
     inkscape:window-maximized="1">
    <inkscape:grid
       type="xygrid"
       id="grid5079" />
  </sodipodi:namedview>
  <metadata
     id="metadata4527">
    <rdf:RDF>
      <cc:Work
         rdf:about="">
        <dc:format>image/svg+xml</dc:format>
        <dc:type
           rdf:resource="http://purl.org/dc/dcmitype/StillImage" />
        <dc:title></dc:title>
      </cc:Work>
    </rdf:RDF>
  </metadata>
  <g
     inkscape:label="Layer 1"
     inkscape:groupmode="layer"
     id="layer1"
     transform="translate(0,-191.16665)">
    <g
       aria-label="s"
       transform="matrix(1.0580871,0.44634132,-0.33845304,0.80232945,99.42327,-2.6166791)"
       mask="none"
       style="font-style:normal;font-variant:normal;font-weight:bold;font-stretch:normal;font-size:17.0364418px;line-height:125%;font-family:Orbitron;-inkscape-font-specification:'Orbitron, Bold';text-align:start;letter-spacing:0px;word-spacing:0px;writing-mode:lr-tb;text-anchor:start;fill:#000000;fill-opacity:1;stroke:none;stroke-width:1.89293778px;stroke-linecap:butt;stroke-linejoin:miter;stroke-opacity:1"
       id="text5660">
      <path
         d="m 73.791271,217.08332 c -6.517501,2.70979 -18.459219,6.28028 -24.446146,13.07917 -3.051021,3.12592 -4.901739,11.3899 -5.285644,15.94696 -0.307125,3.64564 0.08138,7.15739 1.165521,10.53523 1.137318,3.37144 3.579313,8.44019 7.325986,15.20626 3.808385,6.6584 6.37353,12.76485 7.695437,18.31934 1.383622,5.44681 1.785368,11.61333 1.205244,18.49956 -0.878714,10.43059 -3.469503,19.31318 -7.772364,26.64776 -5.93009,7.92823 -27.673065,23.06365 -31.325427,21.07539 -3.697437,-4.9326 -5.125037,-9.17349 -2.960095,-11.80957 6.125277,-7.45826 20.253402,-12.21239 26.288945,-22.13591 1.657725,-2.80591 2.67001,-6.38613 3.036852,-10.74064 0.341249,-4.05072 -0.226857,-8.24252 -1.704322,-12.57538 -1.477463,-4.33287 -4.231016,-9.76507 -8.260659,-16.29658 -5.786091,-9.42741 -8.120341,-20.77417 -7.00275,-34.04027 -1.191067,-16.8052 15.540084,-34.49943 38.120013,-44.43867 z"
         style="font-style:normal;font-variant:normal;font-weight:normal;font-stretch:normal;font-size:272.58306885px;font-family:'Tw Cen MT Condensed';-inkscape-font-specification:'Tw Cen MT Condensed, ';stroke-width:1.55762267px"
         id="path5713"
         inkscape:connector-curvature="0"
         sodipodi:nodetypes="ccscccsccscsscccc" />
    </g>
  </g>
</svg>
